<svg id="Layer_1" data-name="Layer 1" xmlns="http://www.w3.org/2000/svg" viewBox="0 0 40 602.56"><defs><style>.cls-1{fill:#ffde86;}.cls-2{fill:#8d5621;stroke:#8d5621;stroke-width:0.2px;}.cls-2,.cls-5,.cls-6,.cls-7,.cls-8{stroke-miterlimit:10;}.cls-3{fill:#1e190f;}.cls-4{fill:#232218;}.cls-5{fill:#998100;stroke:#b29600;stroke-width:0.5px;}.cls-6{fill:#1a1a1a;stroke:#000;}.cls-7{fill:#4d4d4d;stroke:#333;}.cls-8{fill:#473b1a;stroke:#473b1a;}</style><linearGradient id="grad" x1="0" x2="0" y1="0" y2="100%"><stop offset="50%" stop-color="red"/><stop offset="50%" stop-color="black"/></linearGradient></defs><title>ney</title><g id="piece8"><path class="cls-1" d="M45.16,529l-.81,71a55.76,55.76,0,0,1,10.5-.91,44.07,44.07,0,0,1,10.5,1l-.19-71" transform="translate(-35 -15.19)"/><path class="cls-2" d="M65.4,599.55S60.85,599,54.85,599c-5,0-10.55.45-10.55.45h0V602s4.5-.1,10.5-.07c7,0,10.5.16,10.5.16v-2.5" transform="translate(-35 -15.19)"/></g><g id="piece7"><path class="cls-1" d="M45,454l-.5,67A59,59,0,0,1,55,520a46.62,46.62,0,0,1,10.5.9L65,454" transform="translate(-35 -15.19)"/><circle class="cls-3 duegah" cx="19" cy="486.11" r="4"/><circle class="cls-3 kuerdi" cx="19" cy="458.35" r="4"/><path class="cls-2" d="M65.55,521A60,60,0,0,0,55,520a76.69,76.69,0,0,0-10.55.9h0v4.52s4.5-.21,10.5-.21c7,0,10.5.21,10.5.21V521" transform="translate(-35 -15.19)"/><path class="cls-4" d="M66,525.48a65.11,65.11,0,0,0-11-.9,83.28,83.28,0,0,0-11,.9h.05V530s4.69-.21,10.95-.21c7.3,0,10.95.21,10.95.21v-4.52" transform="translate(-35 -15.19)"/></g><g id="piece6"><path class="cls-1" d="M45,381l-.5,70a56.53,56.53,0,0,1,10.5-.95,44.67,44.67,0,0,1,10.5.95L65,381" transform="translate(-35 -15.19)"/><circle class="cls-3 segah" cx="19" cy="427.81" r="4"/><circle class="cls-3 cargah" cx="19" cy="379.81" r="4"/><path class="cls-2" d="M65.55,450.43S61,450,55,450c-5,0-10.55.43-10.55.43h0v2.16s4.5-.1,10.5-.1c7,0,10.5.1,10.5.1v-2.16" transform="translate(-35 -15.19)"/><path class="cls-4" d="M66,452.5s-4.74-.5-11-.5c-5.21,0-11,.5-11,.5h.05V455s4.69-.12,10.95-.12c7.3,0,10.95.12,10.95.12v-2.5" transform="translate(-35 -15.19)"/></g><g id="piece5"><path class="cls-1" d="M45,314l-.5,59.9A65.73,65.73,0,0,1,55,373.1a51.9,51.9,0,0,1,10.5.81L65,314" transform="translate(-35 -15.19)"/><circle class="cls-3 nim-hicaz" cx="19" cy="350.81" r="4"/><circle class="cls-3 neva" cx="19" cy="322.31" r="4"/><path class="cls-2" d="M65.55,373.9A66.8,66.8,0,0,0,55,373.1a85.47,85.47,0,0,0-10.55.81h0v4s4.5-.19,10.5-.19c7,0,10.5.19,10.5.19v-4" transform="translate(-35 -15.19)"/><path class="cls-4" d="M66,378a72.55,72.55,0,0,0-11-.81A92.83,92.83,0,0,0,44,378h.05v4s4.69-.19,10.95-.19c7.3,0,10.95.19,10.95.19v-4" transform="translate(-35 -15.19)"/></g><g id="piece4"><path class="cls-1" d="M45,240l-.5,66.07a59.77,59.77,0,0,1,10.5-.89,47.22,47.22,0,0,1,10.5.89L65,240" transform="translate(-35 -15.19)"/><path class="cls-2" d="M65.55,306.07A60.74,60.74,0,0,0,55,305.18a77.68,77.68,0,0,0-10.55.89h0v4.46s4.5-.21,10.5-.21c7,0,10.5.21,10.5.21v-4.46" transform="translate(-35 -15.19)"/><path class="cls-4" d="M66,310.54a66,66,0,0,0-11-.89,84.36,84.36,0,0,0-11,.89h.05V315s4.69-.21,10.95-.21c7.3,0,10.95.21,10.95.21v-4.46" transform="translate(-35 -15.19)"/></g><g id="piece3"><path class="cls-1" d="M45,160l-.5,71.36a55.49,55.49,0,0,1,10.5-1,43.86,43.86,0,0,1,10.5,1L65,160" transform="translate(-35 -15.19)"/><path class="cls-2" d="M65.55,231.36a56.39,56.39,0,0,0-10.55-1,72.1,72.1,0,0,0-10.55,1h0v4.82S49,236,55,236c7,0,10.5.22,10.5.22v-4.82" transform="translate(-35 -15.19)"/><path class="cls-4" d="M66,236.18a61.21,61.21,0,0,0-11-1,78.28,78.28,0,0,0-11,1h.05V241s4.69-.22,10.95-.22c7.3,0,10.95.22,10.95.22v-4.82" transform="translate(-35 -15.19)"/></g><g id="piece2"><path class="cls-1" d="M45,77l-.5,74A53.58,53.58,0,0,1,55,150a42.36,42.36,0,0,1,10.5,1L65,77" transform="translate(-35 -15.19)"/><path class="cls-2" d="M65.55,151A54.45,54.45,0,0,0,55,150a69.61,69.61,0,0,0-10.55,1h0v5s4.5-.23,10.5-.23c7,0,10.5.23,10.5.23v-5" transform="translate(-35 -15.19)"/><path class="cls-4" d="M66,156a59.1,59.1,0,0,0-11-1,75.57,75.57,0,0,0-11,1h.05v5s4.69-.23,10.95-.23c7.3,0,10.95.23,10.95.23v-5" transform="translate(-35 -15.19)"/></g><g id="piece1"><path class="cls-1" d="M44.5,42V68A53.58,53.58,0,0,1,55,67a42.36,42.36,0,0,1,10.5,1V42" transform="translate(-35 -15.19)"/><path class="cls-2" d="M65.55,68A54.45,54.45,0,0,0,55,67a69.61,69.61,0,0,0-10.55,1h0v5s4.5-.23,10.5-.23c7,0,10.5.23,10.5.23V68" transform="translate(-35 -15.19)"/><path class="cls-4" d="M66,73a59.1,59.1,0,0,0-11-1,75.57,75.57,0,0,0-11,1h.05v5s4.69-.23,10.95-.23c7.3,0,10.95.23,10.95.23V73" transform="translate(-35 -15.19)"/></g><g id="head"><path class="cls-5" d="M44.5,31.5v15a62.68,62.68,0,0,1,11-1c7,0,10,1,10,1v-15" transform="translate(-35 -15.19)"/><path class="cls-6" d="M42.5,22.5s4.84-5.2,7-6c2.58-1,8.52-1.19,11,0,1.91.92,6,6,6,6Z" transform="translate(-35 -15.19)"/><path class="cls-7" d="M35.5,26.5c0-2,5-3.62,7-4a88.45,88.45,0,0,1,13-1,70.7,70.7,0,0,1,11,1c2.3.51,8.17,2.65,8,5s-6.55,3.79-9,4c-2.61.23-6.56-.5-10.5-.5-3,0-10.5.5-10.5.5S35.52,29.07,35.5,26.5Z" transform="translate(-35 -15.19)"/></g><path class="cls-5" d="M44.5,602v15s5,.5,11,.5a69.49,69.49,0,0,0,10-.5V602" transform="translate(-35 -15.19)"/><path class="cls-8" d="M65.75,601.5s-4.64.14-10.75.14c-5.09,0-10.75-.14-10.75-.14h.05v.71s4.59.29,10.7.29c7.13,0,10.7-.29,10.7-.29v-.71" transform="translate(-35 -15.19)"/></svg>
